# Blender 4.2.1 LTS
# www.blender.org
mtllib box.mtl
o Cube
v 1.000000 1.000000 -1.000000
v 1.000000 1.000000 -1.000000
v 1.000000 1.000000 -1.000000
v 1.000000 -1.000000 -1.000000
v 1.000000 -1.000000 -1.000000
v 1.000000 -1.000000 -1.000000
v 1.000000 1.000000 1.000000
v 1.000000 1.000000 1.000000
v 1.000000 1.000000 1.000000
v 1.000000 -1.000000 1.000000
v 1.000000 -1.000000 1.000000
v 1.000000 -1.000000 1.000000
v -1.000000 1.000000 -1.000000
v -1.000000 1.000000 -1.000000
v -1.000000 1.000000 -1.000000
v -1.000000 -1.000000 -1.000000
v -1.000000 -1.000000 -1.000000
v -1.000000 -1.000000 -1.000000
v -1.000000 1.000000 1.000000
v -1.000000 1.000000 1.000000
v -1.000000 1.000000 1.000000
v -1.000000 -1.000000 1.000000
v -1.000000 -1.000000 1.000000
v -1.000000 -1.000000 1.000000
vn -0.0000 1.0000 -0.0000
vn -0.0000 -0.0000 1.0000
vn -1.0000 -0.0000 -0.0000
vn -0.0000 -1.0000 -0.0000
vn 1.0000 -0.0000 -0.0000
vn -0.0000 -0.0000 -1.0000
vt 0.000000 0.000000
vt 0.000000 1.000000
vt 1.000000 1.000000
vt 1.000000 0.000000
s 0
usemtl Material.001
f 2/1/1 14/2/1 20/3/1
f 2/1/1 20/3/1 8/4/1
f 10/1/2 7/4/2 19/3/2
f 10/1/2 19/3/2 22/2/2
f 24/1/3 21/4/3 15/3/3
f 24/1/3 15/3/3 18/2/3
f 17/3/4 5/4/4 11/1/4
f 17/3/4 11/1/4 23/2/4
f 6/2/5 3/3/5 9/4/5
f 6/2/5 9/4/5 12/1/5
f 16/2/6 13/3/6 1/4/6
f 16/2/6 1/4/6 4/1/6
